<svg xmlns="http://www.w3.org/2000/svg" xmlns:xlink="http://www.w3.org/1999/xlink" width="247" height="225" viewBox="0 0 247 225">
  <defs>
    <filter id="楕円形_1430" x="22" y="0" width="225" height="225" filterUnits="userSpaceOnUse">
      <feOffset dy="3" input="SourceAlpha"/>
      <feGaussianBlur stdDeviation="3" result="blur"/>
      <feFlood flood-opacity="0.161"/>
      <feComposite operator="in" in2="blur"/>
      <feComposite in="SourceGraphic"/>
    </filter>
  </defs>
  <g id="グループ_6637" data-name="グループ 6637" transform="translate(-438 -10510)">
    <g transform="matrix(1, 0, 0, 1, 438, 10510)" filter="url(#楕円形_1430)">
      <circle id="楕円形_1430-2" data-name="楕円形 1430" cx="103.5" cy="103.5" r="103.5" transform="translate(31 6)" fill="#fff"/>
    </g>
    <circle id="楕円形_1431" data-name="楕円形 1431" cx="36" cy="36" r="36" transform="translate(438 10516)" fill="#1b1464"/>
    <path id="パス_27565" data-name="パス 27565" d="M15.84-1.96c-.04-2.52-.08-5.08-.08-7.52V-22.24l.16-6.52-.6-.44L4.48-26.72v1.48l4.72-.44v16.2c0,2.44-.04,5-.08,7.52L3.4-1.24V0H21.2V-1.24Z" transform="translate(462 10568)" fill="#fff"/>
    <g id="グループ_6223" data-name="グループ 6223" transform="translate(-64.959 10449.006)">
      <path id="パス_27451" data-name="パス 27451" d="M670.841,132.494v30.478l6.293,6.086V138.787H754.52v56.04H677.134v.234l-6.293-4.786V201.12h89.972V132.494Z" transform="translate(-44.919)" fill="#1b1464"/>
      <g id="グループ_4941" data-name="グループ 4941" transform="translate(594.581 135.295)">
        <path id="パス_27452" data-name="パス 27452" d="M640.27,148.259A11.056,11.056,0,1,1,629.214,137.2,11.056,11.056,0,0,1,640.27,148.259Z" transform="translate(-618.158 -137.203)" fill="#1b1464"/>
      </g>
      <g id="グループ_4942" data-name="グループ 4942" transform="translate(559.958 209.019)">
        <rect id="長方形_11623" data-name="長方形 11623" width="89.595" height="7.913" transform="translate(0 0)" fill="#1b1464"/>
      </g>
      <g id="グループ_4943" data-name="グループ 4943" transform="translate(565.295 160.567)">
        <path id="パス_27453" data-name="パス 27453" d="M658.959,192.445a4.821,4.821,0,0,0-6.374-2.419l-13.7,6.162-13.9-14.266c-.129-.131-.275-.271-.416-.394a8.036,8.036,0,0,0-4.725-1.844h-3.424l-4.7,12.479-.964-7.788H607.78l-.964,7.789-4.7-12.48H599.43a7.972,7.972,0,0,0-4.649,1.282l-.3.22-.152.122-.293.24-.471.413c-.281.261-.557.518-.813.77l-.734.745-.679.735c-.447.491-.856.977-1.275,1.466-.394.488-.8.977-1.181,1.467-1.534,1.957-2.879,3.939-4.168,5.938a128.728,128.728,0,0,0-6.82,12.191c-.519,1.026-1.02,2.062-1.505,3.1s-.955,2.051-1.421,3.071q-1.395,3.061-2.742,6.11c-.618,1.4-2.691,6.165-3.3,7.561h13.079c.847-1.616,3.161-6.6,4.017-8.2q.771-1.438,1.548-2.852c.515-.936,1.036-1.857,1.574-2.772q.995-1.723,2.032-3.405l.3,17.228h35.592l.394-21.841,5.672,4.967.525.462a5.659,5.659,0,0,0,6.773.5l16.732-10.721A4.823,4.823,0,0,0,658.959,192.445Z" transform="translate(-568.929 -179.684)" fill="#1b1464"/>
        <path id="パス_27454" data-name="パス 27454" d="M636.682,183.508l.787-2.823h-4.555l.787,2.823Z" transform="translate(-594.85 -180.09)" fill="#1b1464"/>
      </g>
    </g>
  </g>
</svg>
