<svg xmlns="http://www.w3.org/2000/svg" width="518" height="84" viewBox="0 0 518 84">
  <g id="グループ_6189" data-name="グループ 6189" transform="translate(-604 -2414.131)">
    <rect id="長方形_7906" data-name="長方形 7906" width="202" height="15" transform="translate(920 2479.131)" fill="#fff6b1"/>
    <text id="が" transform="translate(907 2486.131)" fill="#1b1464" font-size="20" font-family="NotoSansCJKjp-Bold, Noto Sans CJK JP" font-weight="700"><tspan x="-10" y="0">が</tspan></text>
    <g id="レイヤー_1" data-name="レイヤー 1" transform="translate(604 2414.131)">
      <path id="パス_25562" data-name="パス 25562" d="M228.585,14.881q3.324-2.415,10.282-2.391h22.869l-.65,3.319H239.3a5.409,5.409,0,0,0-3.893,1.435,11.535,11.535,0,0,0-2.635,5.375h24.71l-.65,3.319h-24.71a19.375,19.375,0,0,0-.144,2.238q0,4.586,4.041,4.581h21.75l-.612,3.319H234.286q-5.81,0-8.335-1.588-2.74-1.765-2.74-6.026a22.162,22.162,0,0,1,.478-4.184q1.3-6.781,4.907-9.378" transform="translate(-116.656 -6.521)" fill="#1b1464"/>
      <path id="パス_25563" data-name="パス 25563" d="M340.723,12.44h8.694l-4.581,23.591h-9.99L321.5,17.38l-3.606,18.651H309.16l3.931-20.272H309.38l.646-3.319h13.711l13.347,18.612Z" transform="translate(-161.578 -6.495)" fill="#1b1464"/>
      <path id="パス_25564" data-name="パス 25564" d="M411.948,17.253a9.6,9.6,0,0,0-4.3,6.255,8.314,8.314,0,0,0-.148,1.554,6.528,6.528,0,0,0,2.654,5.39,11.125,11.125,0,0,0,7.1,2.1,24.814,24.814,0,0,0,6.963-.956,10.647,10.647,0,0,0,4.543-2.2l.708-3.539H417.577l.651-3.319h20.324l-1.478,7.719a30.106,30.106,0,0,1-8.909,3.826,42.21,42.21,0,0,1-11.544,1.769q-8.22,0-12.84-2.343-5.05-2.6-5.05-7.723a12.808,12.808,0,0,1,.215-2.272q1.21-6.265,7.594-9.483,5.767-2.869,14.9-2.96a62.462,62.462,0,0,1,17.388,2.238l-.65,3.319a59.3,59.3,0,0,0-17.46-1.913,16.124,16.124,0,0,0-8.766,2.535" transform="translate(-208.39 -5.78)" fill="#1b1464"/>
      <path id="パス_25565" data-name="パス 25565" d="M516.591,31.25a7.135,7.135,0,0,0,2.343-3.319h8.728q-3.677,8.13-14.1,8.13H489.5l3.931-20.272h-3.692l.65-3.319h12.434l-3.931,20.272h14.031a5.686,5.686,0,0,0,3.682-1.478" transform="translate(-255.827 -6.511)" fill="#1b1464"/>
      <path id="パス_25566" data-name="パス 25566" d="M587.139,12.44l-4.582,23.591H573.83l3.931-20.272h-3.716l.65-3.319Z" transform="translate(-299.866 -6.495)" fill="#1b1464"/>
      <path id="パス_25567" data-name="パス 25567" d="M614.534,12.818q4.868-1.588,15.15-1.588a59.628,59.628,0,0,1,9.344.846,53.679,53.679,0,0,1,8.154,1.8l-.65,3.281a54.3,54.3,0,0,0-8.187-1.621,71.2,71.2,0,0,0-9.383-.65,27.519,27.519,0,0,0-8.044.827,3.77,3.77,0,0,0-2.812,2.778,3.326,3.326,0,0,0-.034.478c0,.794.621,1.31,1.875,1.554q.861.182,5.844.54l4.94.4q7.967.574,11.616,2.018,3.788,1.511,3.787,4.3a4.18,4.18,0,0,1-.11.956q-.756,4-6.021,5.7-4.907,1.549-15.15,1.549a62.216,62.216,0,0,1-9.345-.794,51.042,51.042,0,0,1-8.13-1.841l.651-3.281a50.1,50.1,0,0,0,8.163,1.607,73.6,73.6,0,0,0,9.383.631,27.98,27.98,0,0,0,8.044-.813,3.743,3.743,0,0,0,2.812-2.793,3.343,3.343,0,0,0,.034-.478q0-1.153-1.913-1.554-.832-.177-5.844-.54l-4.945-.359q-7.934-.583-11.578-2.056-3.788-1.478-3.788-4.3a6.769,6.769,0,0,1,.072-.956q.8-3.969,6.059-5.662" transform="translate(-317.514 -5.864)" fill="#1b1464"/>
      <path id="パス_25568" data-name="パス 25568" d="M728.6,12.44H737.3l-4.581,23.591h-8.728l1.98-10.138H707.718l-1.951,10.138H697.04l3.931-20.272h-3.716l.65-3.319h12.443l-1.98,10.134h18.249Z" transform="translate(-364.297 -6.495)" fill="#1b1464"/>
      <path id="パス_25569" data-name="パス 25569" d="M258.222,94.233q4.907,2.558,4.9,7.652a12.221,12.221,0,0,1-.249,2.391h-8.694a10.376,10.376,0,0,0,.143-1.693,6.442,6.442,0,0,0-2.453-5.26,10.793,10.793,0,0,0-6.925-2.056,14.1,14.1,0,0,0-8.493,2.544,10.172,10.172,0,0,0-4.275,6.475,9.418,9.418,0,0,0-.182,1.841,5.963,5.963,0,0,0,2.343,5.012q2.453,1.913,7.145,1.913a51.558,51.558,0,0,0,15.6-2.3l-.684,3.572a59.4,59.4,0,0,1-15.619,2.272q-8.13,0-12.625-2.391-4.907-2.6-4.907-7.652a11.193,11.193,0,0,1,.254-2.31,13.133,13.133,0,0,1,7.393-9.488q5.633-2.869,14.681-2.869,8.187,0,12.663,2.343" transform="translate(-116.678 -48.823)" fill="#1b1464"/>
      <path id="パス_25570" data-name="パス 25570" d="M346.279,95.284q4.2,2.2,4.2,6.217a8.12,8.12,0,0,1-.148,1.516l-2.669,13.672h-8.727l1.693-8.766H322.416l-1.693,8.766H312l3.921-20.305H312.21l.646-3.314h21.931q7.288,0,11.477,2.2m-4.672,7.719a7.235,7.235,0,0,0,.143-1.406q0-5.194-7.608-5.2h-9.474l-1.588,8.192h18.216Z" transform="translate(-163.06 -49.439)" fill="#1b1464"/>
      <path id="パス_25571" data-name="パス 25571" d="M443.881,93.1,439.3,116.691h-8.694l3.214-16.523-11.941,16.523h-9.99l-5.2-15.547L403.7,116.691H399.44l3.931-20.277h-3.716l.651-3.314h12.448l6.743,20.2,14.576-20.2Z" transform="translate(-208.765 -49.454)" fill="#1b1464"/>
      <path id="パス_25572" data-name="パス 25572" d="M534.98,94.7a5.174,5.174,0,0,1,2.616,4.653,7.917,7.917,0,0,1-.148,1.478,8.06,8.06,0,0,1-4.036,5.557,17.853,17.853,0,0,1-9.455,2.238H508.8l-1.588,8.044h-8.68l3.931-20.291h-3.706l.65-3.319h27.952q5.017,0,7.652,1.621m-8.13,9.378a5.385,5.385,0,0,0,1.913-3.247,6.255,6.255,0,0,0,.1-1.153,3.284,3.284,0,0,0-.865-2.391,3.18,3.18,0,0,0-2.391-.88H511.188l-1.731,8.909h14.069a5.164,5.164,0,0,0,3.319-1.229" transform="translate(-260.547 -49.433)" fill="#1b1464"/>
      <path id="パス_25573" data-name="パス 25573" d="M77.17,9.495A29.281,29.281,0,1,1,47.52,38.774,29.466,29.466,0,0,1,77.17,9.495m0-5.195A34.694,34.694,0,0,0,42.26,38.774a34.913,34.913,0,0,0,69.82,0A34.694,34.694,0,0,0,77.17,4.3" transform="translate(-22.05 -2.248)" fill="#1b1464"/>
      <path id="パス_25574" data-name="パス 25574" d="M92.4,9.545c9.67,0,17.512,13.535,17.512,30.241S102.065,70.028,92.4,70.028,74.9,56.488,74.9,39.786,82.731,9.545,92.4,9.545m0-3.3C80.708,6.24,71.55,20.974,71.55,39.786S80.708,73.332,92.4,73.332s20.86-14.734,20.86-33.546S104.093,6.24,92.4,6.24" transform="translate(-37.333 -3.26)" fill="#1b1464"/>
      <path id="パス_25575" data-name="パス 25575" d="M101.944,9.545c4.835,0,8.756,13.535,8.756,30.241s-3.921,30.241-8.756,30.241S93.2,56.488,93.2,39.786s3.921-30.241,8.747-30.241m0-3.3C92.38,6.24,89.85,27.323,89.85,39.786s2.544,33.546,12.094,33.546c4.084,0,7.25-3.777,9.411-11.254a83.636,83.636,0,0,0,2.692-22.292,83.673,83.673,0,0,0-2.692-22.3c-2.162-7.464-5.327-11.25-9.411-11.25" transform="translate(-46.882 -3.26)" fill="#1b1464"/>
      <path id="パス_25576" data-name="パス 25576" d="M78.12,37.048c16.924,0,30.644,7.833,30.644,17.5s-13.72,17.5-30.644,17.5-30.606-7.838-30.606-17.5,13.715-17.5,30.63-17.5m0-3.348c-19.052,0-33.954,9.158-33.954,20.85S59.115,75.4,78.168,75.4,112.16,66.243,112.16,54.55,97.182,33.7,78.12,33.7" transform="translate(-23.057 -18.054)" fill="#1b1464"/>
      <path id="パス_25577" data-name="パス 25577" d="M78.094,55.348c16.924,0,30.644,3.921,30.644,8.756s-13.72,8.751-30.644,8.751S47.488,68.939,47.488,64.1s13.692-8.756,30.606-8.756m0-3.348C65.474,52,44.14,54.549,44.14,64.1c0,4.079,3.826,7.245,11.4,9.407A85.7,85.7,0,0,0,78.118,76.2,85.778,85.778,0,0,0,100.7,73.51c7.57-2.162,11.406-5.327,11.406-9.407,0-9.564-21.367-12.1-33.992-12.1" transform="translate(-23.031 -27.592)" fill="#1b1464"/>
      <rect id="長方形_7724" data-name="長方形 7724" width="3.348" height="64.51" transform="translate(53.389 4.271)" fill="#1b1464"/>
      <rect id="長方形_7725" data-name="長方形 7725" width="66.057" height="3.348" transform="translate(22.041 34.839)" fill="#1b1464"/>
      <path id="パス_25578" data-name="パス 25578" d="M88.1,93.264,44.393,45.288a1.1,1.1,0,0,0-1.626,1.482L85.845,94.057a7.015,7.015,0,0,1,2.257-.789" transform="translate(-22.165 -24.32)" fill="#1b1464"/>
      <path id="パス_25579" data-name="パス 25579" d="M.957,18.215l-.641-.7c-.11-.124-.033-.378.177-.569l.569-.521c.21-.191.478-.244.583-.12l.163.182c.478-.956.99-1.965,1.5-2.97l-.478-.536c-.115-.124-.038-.383.172-.574l.569-.516c.21-.191.478-.244.583-.12l.043.048c.588-1.133,1.124-2.152,1.506-2.869L3.027,6.006C2.678,5.619.985,2.874.928,1.611A1.435,1.435,0,0,1,1.406.392,1.382,1.382,0,0,1,2.774.071,13.015,13.015,0,0,1,6.805,2.539l2.63,2.869,3.123-1.282h0c-.115-.124-.038-.383.172-.574l.569-.516c.21-.191.478-.244.583-.12l.478.512c1.043-.416,2.1-.837,3.089-1.219l-.139-.153c-.11-.124-.033-.378.177-.574l.545-.521c.206-.191.478-.244.583-.12l.617.679a10.586,10.586,0,0,1,2.5-.77c.521.244,1.019,1.607,1.019,1.607-.077.722-1.435,1.717-9.517,7.345,1.329,1.683,4.046,5.227,5.452,7.508a28.153,28.153,0,0,1,3.261-.349c.21.091.794,1.229.655,1.435A21.73,21.73,0,0,1,19.3,19.611c.4.45.622.889.478,1s-.521-.148-.933-.579a28.426,28.426,0,0,1-1.588,3.118c-.21.12-1.291-.564-1.363-.789a27.685,27.685,0,0,1,.641-3.147c-2.109-1.607-5.39-4.644-6.968-6.14C3.348,20.482,2.233,21.7,1.507,21.711c0,0-1.31-.622-1.5-1.162a9.863,9.863,0,0,1,.956-2.334" transform="translate(0 -0.008)" fill="#1b1464"/>
    </g>
    <text id="選ばれる理由" transform="translate(1021 2488.131)" fill="#1b1464" font-size="32" font-family="NotoSansCJKjp-Bold, Noto Sans CJK JP" font-weight="700"><tspan x="-96" y="0">選</tspan><tspan y="0">ばれる</tspan><tspan y="0">理由</tspan></text>
  </g>
</svg>
