<svg xmlns="http://www.w3.org/2000/svg" width="208.911" height="167.759" viewBox="0 0 208.911 167.759">
  <path id="パス_27562" data-name="パス 27562" d="M-49.866,4.094q-31.914,0-46.611-29.185Q-107.6-47.556-107.6-83.564q0-30.444,14.487-53.12,17.112-26.56,46.506-26.56,27.61,0,43.042,23.516Q9.763-119.363,9.763-90.073q0,47.031-14.907,70.6T-49.866,4.094Zm3.149-147.078q-19.526,0-30.969,19.841-9.553,16.587-9.553,37.9,0,34.539,9.343,51.86t28.03,17.322q22.256,0,31.914-25.405,6.719-17.637,6.719-44.722,0-28.45-8.871-42.622T-46.716-142.983ZM91.123.1H70.232L49.446,0Q42.1,0,39.158-.945,33.8-2.834,33.8-8.923q0-10.6,16.482-10.6l5.039.1,4.3.21q0-5.039-.892-14.907t-.892-14.8q0-13.333,2.415-40.522,2.31-26.77,2.2-40.627Q48.4-119.153,44.512-119.153a9.9,9.9,0,0,1-7.3-3.149,10.038,10.038,0,0,1-3.1-7.244q0-4.934,9.028-11.968,5.669-3.989,16.062-12.808,9.238-9.343,17.637-9.343,7.034,0,7.034,8.083a60.169,60.169,0,0,1-.63,7.191,60.169,60.169,0,0,0-.63,7.191q0,3.464.367,10.5t.367,10.5q0,11.968-2.52,35.693t-2.52,35.588q0,6.089.84,14.8T80.1-19.841l11.023-.21a9.889,9.889,0,0,1,7.3,2.887,9.76,9.76,0,0,1,2.887,7.191,9.715,9.715,0,0,1-2.887,7.244A9.987,9.987,0,0,1,91.123.1Z" transform="translate(107.605 163.665)" fill="#ffe200" opacity="0.2"/>
</svg>
