<svg xmlns="http://www.w3.org/2000/svg" width="19" height="22" viewBox="0 0 19 22">
  <g id="羽根のペンの無料アイコン素材" transform="translate(-37.43 -0.003)">
    <path id="パス_27427" data-name="パス 27427" d="M56.4,0s-.807,1.216-6.082,3.015c-5.377,1.834-8.687,9.3-8.687,9.3-.8,1.529-3.947,7.883-3.947,7.883-.867,1.64.723,2.61,1.654.916,1.789-3.253,2.942-6.225,5.661-6.31,3.965-.124,6.677-3.614,5.824-3.453-1.123.493-3.6.038-2.14-.189,3.5-.283,5.656-2.935,4.954-3.115a3.333,3.333,0,0,1-2.625-.114C57.186,7.178,56.4,0,56.4,0Z" fill="#05be4f"/>
  </g>
</svg>
