<svg xmlns="http://www.w3.org/2000/svg" xmlns:xlink="http://www.w3.org/1999/xlink" width="247" height="225" viewBox="0 0 247 225">
  <defs>
    <filter id="楕円形_1428" x="22" y="0" width="225" height="225" filterUnits="userSpaceOnUse">
      <feOffset dy="3" input="SourceAlpha"/>
      <feGaussianBlur stdDeviation="3" result="blur"/>
      <feFlood flood-opacity="0.161"/>
      <feComposite operator="in" in2="blur"/>
      <feComposite in="SourceGraphic"/>
    </filter>
  </defs>
  <g id="グループ_6636" data-name="グループ 6636" transform="translate(-841 -10510)">
    <g transform="matrix(1, 0, 0, 1, 841, 10510)" filter="url(#楕円形_1428)">
      <circle id="楕円形_1428-2" data-name="楕円形 1428" cx="103.5" cy="103.5" r="103.5" transform="translate(31 6)" fill="#fff"/>
    </g>
    <circle id="楕円形_1429" data-name="楕円形 1429" cx="36" cy="36" r="36" transform="translate(841 10516)" fill="#1b1464"/>
    <path id="パス_27564" data-name="パス 27564" d="M5.72-4.92c1.84-1.44,3.6-2.84,4.96-3.8,7.64-5,11.04-8.64,11.04-12.8,0-4.52-2.92-7.84-9.24-7.84-5.36,0-9.88,2.52-10.24,7.16a2.8,2.8,0,0,0,2.6,1.68c1.24,0,2.56-.64,3-3.36l.88-3.96A6.779,6.779,0,0,1,10.24-28c3.08,0,4.96,2.36,4.96,6.12,0,4.16-1.8,6.88-6.36,11.56C6.88-8.28,4.56-6,2.36-3.6V0H22.4V-4.92Z" transform="translate(865 10568)" fill="#fff"/>
    <g id="グループ_6213" data-name="グループ 6213" transform="translate(405 -55)">
      <g id="グループ_4937" data-name="グループ 4937" transform="translate(387 10190.673)">
        <path id="パス_27442" data-name="パス 27442" d="M337.148,536.853l-4.842-.681a1.734,1.734,0,0,0-1.948,1.454l-5.339,35.722H294.243a1.717,1.717,0,0,0-1.712,1.712v4.89a1.717,1.717,0,0,0,1.712,1.712h12.631V603.2h-4.409a1.717,1.717,0,0,0-1.712,1.712v1.467a1.717,1.717,0,0,0,1.712,1.712h15.419a1.717,1.717,0,0,0,1.712-1.712v-1.467a1.717,1.717,0,0,0-1.712-1.712h-4.409V581.661H330.79a1.848,1.848,0,0,0,1.618-1.523l6.181-41.354A1.7,1.7,0,0,0,337.148,536.853Z" transform="translate(-86.609 -58.139)" fill="#1b1464"/>
        <path id="パス_27443" data-name="パス 27443" d="M296.886,557.635c4.33,0,9.914-3.94,9.914-8.869V519.435a8.925,8.925,0,0,0-8.925-8.925c-2.256,0-4.859,1.343-6.774,2.858l-11.051,9.766L268.5,515.461a4.236,4.236,0,0,0-5.151,6.7l13.836,12.248a5.075,5.075,0,0,0,6.723,0l.274-.242,4.77-4.216v15.211H267.176a5.968,5.968,0,0,0-5.911,5.384l-3.735,38.018a4.748,4.748,0,0,0,9.4,1.3l5.73-32.228Z" transform="translate(-69.523 -45.627)" fill="#1b1464"/>
        <circle id="楕円形_481" data-name="楕円形 481" cx="9.309" cy="9.309" r="9.309" transform="translate(218.696 443.772)" fill="#1b1464"/>
        <path id="パス_27444" data-name="パス 27444" d="M116.461,536.853l4.842-.681a1.734,1.734,0,0,1,1.948,1.454l5.339,35.722h30.776a1.717,1.717,0,0,1,1.712,1.712v4.89a1.717,1.717,0,0,1-1.712,1.712H146.735V603.2h4.409a1.717,1.717,0,0,1,1.712,1.712v1.467a1.717,1.717,0,0,1-1.712,1.712H135.725a1.717,1.717,0,0,1-1.712-1.712v-1.467a1.717,1.717,0,0,1,1.712-1.712h4.409V581.661H122.819a1.848,1.848,0,0,1-1.618-1.523l-6.181-41.354A1.7,1.7,0,0,1,116.461,536.853Z" transform="translate(0 -58.139)" fill="#1b1464"/>
        <path id="パス_27445" data-name="パス 27445" d="M153.662,557.635c-4.33,0-9.914-3.94-9.914-8.869V519.435a8.925,8.925,0,0,1,8.925-8.925c2.256,0,4.859,1.343,6.774,2.858l11.051,9.766,11.551-7.674a4.236,4.236,0,0,1,5.151,6.7l-13.836,12.248a5.075,5.075,0,0,1-6.723,0l-.274-.242-4.77-4.216v15.211h21.774a5.968,5.968,0,0,1,5.911,5.384l3.735,38.018a4.748,4.748,0,0,1-9.4,1.3l-5.73-32.228Z" transform="translate(-14.025 -45.627)" fill="#1b1464"/>
        <circle id="楕円形_482" data-name="楕円形 482" cx="9.309" cy="9.309" r="9.309" transform="translate(129.686 443.772)" fill="#1b1464"/>
        <path id="パス_27446" data-name="パス 27446" d="M215.058,451.68c-.764.071-1.54.109-2.325.109a24.238,24.238,0,0,1-5.022-.518,2,2,0,0,0-1.208.121,30.455,30.455,0,0,1-6.621,1.974,12.713,12.713,0,0,0,1.619-2.277,2,2,0,0,0-.615-2.626c-2.964-2.02-4.6-4.638-4.6-7.372,0-2.714,1.611-5.318,4.537-7.332a18.478,18.478,0,0,1,5.547-2.525,16.858,16.858,0,0,1,2.424-4.562,23.846,23.846,0,0,0-10.233,3.8c-4.039,2.78-6.264,6.551-6.264,10.618a12.408,12.408,0,0,0,4.747,9.455,8.078,8.078,0,0,1-3.513,2.359,2.52,2.52,0,0,0,.778,4.889q.4.012.8.012a33.854,33.854,0,0,0,12.394-2.508,28.39,28.39,0,0,0,5.226.48,27.5,27.5,0,0,0,8.6-1.345A27.55,27.55,0,0,1,215.058,451.68Z" transform="translate(-37.501 -4.727)" fill="#1b1464"/>
        <g id="グループ_4936" data-name="グループ 4936" transform="translate(172.705 416.983)">
          <path id="パス_27447" data-name="パス 27447" d="M265.727,448.387a33.86,33.86,0,0,1-12.394-2.509,28.393,28.393,0,0,1-5.226.48,25.159,25.159,0,0,1-14.169-4.07c-4.039-2.78-6.264-6.552-6.264-10.618s2.225-7.837,6.264-10.618a26.7,26.7,0,0,1,28.338,0c4.039,2.781,6.264,6.552,6.264,10.618a12.409,12.409,0,0,1-4.747,9.455,8.071,8.071,0,0,0,3.513,2.36,2.52,2.52,0,0,1-.778,4.889Q266.127,448.388,265.727,448.387Zm.221-1.151h0Zm-12.4-5.429a1.987,1.987,0,0,1,.794.165,30.47,30.47,0,0,0,6.621,1.973,12.711,12.711,0,0,1-1.619-2.277,1.994,1.994,0,0,1,.616-2.626c2.964-2.02,4.6-4.638,4.6-7.372,0-2.714-1.611-5.318-4.537-7.332a22.74,22.74,0,0,0-23.813,0c-2.925,2.014-4.537,4.617-4.537,7.332s1.611,5.318,4.537,7.332a21.153,21.153,0,0,0,11.907,3.366,24.243,24.243,0,0,0,5.023-.518A1.98,1.98,0,0,1,253.543,441.808Z" transform="translate(-227.673 -416.983)" fill="#1b1464"/>
        </g>
      </g>
    </g>
  </g>
</svg>
