<svg xmlns="http://www.w3.org/2000/svg" xmlns:xlink="http://www.w3.org/1999/xlink" width="252" height="225" viewBox="0 0 252 225">
  <defs>
    <filter id="楕円形_1426" x="27" y="0" width="225" height="225" filterUnits="userSpaceOnUse">
      <feOffset dy="3" input="SourceAlpha"/>
      <feGaussianBlur stdDeviation="3" result="blur"/>
      <feFlood flood-opacity="0.161"/>
      <feComposite operator="in" in2="blur"/>
      <feComposite in="SourceGraphic"/>
    </filter>
  </defs>
  <g id="グループ_6638" data-name="グループ 6638" transform="translate(-1211 -10510)">
    <g id="グループ_6635" data-name="グループ 6635">
      <g id="グループ_6634" data-name="グループ 6634">
        <g transform="matrix(1, 0, 0, 1, 1211, 10510)" filter="url(#楕円形_1426)">
          <circle id="楕円形_1426-2" data-name="楕円形 1426" cx="103.5" cy="103.5" r="103.5" transform="translate(36 6)" fill="#fff"/>
        </g>
        <circle id="楕円形_1427" data-name="楕円形 1427" cx="36" cy="36" r="36" transform="translate(1211 10516)" fill="#1b1464"/>
        <text id="_3" data-name="3" transform="translate(1235 10568)" fill="#fff" font-size="40" font-family="NotoSerifCJKjp-Black, Noto Serif CJK JP" font-weight="800" letter-spacing="0.02em"><tspan x="0" y="0">3</tspan></text>
        <g id="グループ_6211" data-name="グループ 6211" transform="translate(787.432 10363.139)">
          <path id="パス_27448" data-name="パス 27448" d="M596.528,277.875v32.918H528.715V211.007h67.813v26.122l8.146-8.864v-25.4H520.569V318.939h84.105V269.012Z" fill="#1b1464"/>
          <g id="グループ_4939" data-name="グループ 4939" transform="translate(566.223 225.576)">
            <path id="パス_27449" data-name="パス 27449" d="M613.567,291.014a.628.628,0,0,1-.885.038l-13.38-12.3a.63.63,0,0,1-.038-.886l38.161-41.525a.628.628,0,0,1,.885-.038l13.38,12.3a.629.629,0,0,1,.038.886Z" transform="translate(-591.156 -236.143)" fill="#1b1464"/>
            <path id="パス_27450" data-name="パス 27450" d="M587.664,321.989a.626.626,0,0,1-.182-.623l4.851-18.1a.627.627,0,0,1,1.029-.3l12.78,11.744a.627.627,0,0,1-.212,1.051l-17.63,6.36A.626.626,0,0,1,587.664,321.989Z" transform="translate(-587.461 -257.306)" fill="#1b1464"/>
          </g>
        </g>
      </g>
    </g>
  </g>
</svg>
