<svg id="ログイン_サインインのアイコン素材_4" data-name="ログイン・サインインのアイコン素材 4" xmlns="http://www.w3.org/2000/svg" width="22" height="22" viewBox="0 0 22 22">
  <path id="パス_25730" data-name="パス 25730" d="M135.652,58.4v5.977l1.757,1.331v-5.55h4.051V58.4Z" transform="translate(-130.06 -56.113)" fill="#2f2872"/>
  <path id="パス_25731" data-name="パス 25731" d="M137.409,309.181V305.69l0-2.052,0,0v-.01l-1.757,1.33v5.977h5.809v-1.757h-4.047Z" transform="translate(-130.06 -291.225)" fill="#2f2872"/>
  <path id="パス_25732" data-name="パス 25732" d="M8.367,190.239l1.082-.821a.3.3,0,0,0,0-.479l-1.082-.821-1.757-1.331-1.283-.971a.29.29,0,0,0-.181-.06.3.3,0,0,0-.3.3v1.331a.3.3,0,0,1-.3.3H.3a.3.3,0,0,0-.3.3v2.382a.3.3,0,0,0,.3.3H4.546a.3.3,0,0,1,.3.3v1.33a.3.3,0,0,0,.3.3.289.289,0,0,0,.181-.06l1.283-.971Z" transform="translate(0 -178.179)" fill="#2f2872"/>
  <path id="パス_25733" data-name="パス 25733" d="M291.127,13.866l-.593-.158-.5-.134-7.739-2.063a1.438,1.438,0,0,0-.364-.049,1.258,1.258,0,0,0-1.3,1.205v19.59a1.258,1.258,0,0,0,1.3,1.205,1.414,1.414,0,0,0,.364-.049l7.739-2.063.5-.134.593-.158a1,1,0,0,0,.776-.952V14.819A1,1,0,0,0,291.127,13.866Zm-8.3,9.558V21.5a.236.236,0,0,1,.246-.227h.816a.236.236,0,0,1,.246.227v1.919a.236.236,0,0,1-.246.225h-.816A.236.236,0,0,1,282.823,23.424Z" transform="translate(-269.902 -11.463)" fill="#2f2872"/>
</svg>
