<svg xmlns="http://www.w3.org/2000/svg" width="318.251" height="324.558" viewBox="0 0 318.251 324.558">
  <g id="グループ_6190" data-name="グループ 6190" transform="translate(-1196.75 -4507)">
    <g id="グループ_4929" data-name="グループ 4929" transform="translate(1265.359 4510)">
      <g id="グループ_4918" data-name="グループ 4918" transform="translate(50.86)">
        <path id="パス_27432" data-name="パス 27432" d="M293.652,104.023a36.025,36.025,0,0,0,2.5-25.963c-4.066-14.7-9.7-18.453-15.323-17.826,0,0-20.646-5.944-30.968,8.756-7.02,10-8.13,19.075-2.814,24.709,0,0,4.378,6.879,5,8.13s-.7,6.6,1.04,7.339c1.187.5,2.491,1.231,2.491,1.231l4.915,6.444S288.644,134.981,293.652,104.023Z" transform="translate(-243.715 -59.045)" fill="#fff"/>
      </g>
      <g id="グループ_4919" data-name="グループ 4919" transform="translate(59.716 38.145)">
        <path id="パス_27433" data-name="パス 27433" d="M304.147,120.438c.368.886,34.334-2.2,37.862,5.808,5.035,11.438.206,57.87-12.923,66.83,0,0,2.24,4.491-2.878,7.05s-.964-1.92-.964,0,5.441,11.847-9.923,17.931c0,0-47.717,5.124-58.922-2.559,0,0,.964-10.892,6.726-15.053l2.881-20.023s-12.429-25-8-37.292,10.245-12.807,20.493-17.93C278.5,125.2,296.783,102.827,304.147,120.438Z" transform="translate(-256.399 -113.68)" fill="#fff"/>
      </g>
      <g id="グループ_4920" data-name="グループ 4920" transform="translate(34.471 55.631)">
        <path id="パス_27434" data-name="パス 27434" d="M250.291,138.846s14.09,2.233,10.248,18.563a190.988,190.988,0,0,1-10.248,30.572s-15.366,8.177-25.932,3.694,1.92-16.59,7.363-25.746C231.722,165.929,237.807,136.6,250.291,138.846Z" transform="translate(-220.242 -138.724)" fill="#fff"/>
      </g>
      <g id="グループ_4921" data-name="グループ 4921" transform="translate(117.014 46.085)">
        <path id="パス_27435" data-name="パス 27435" d="M357.063,125.052l35.733,6.461s-4.814,35.979-21.453,40.025c0,0-17.931-1.019-27.86-9.794S338.5,126.973,357.063,125.052Z" transform="translate(-338.466 -125.052)" fill="#fff"/>
      </g>
      <g id="グループ_4923" data-name="グループ 4923" transform="translate(58.146 133.666)">
        <g id="グループ_4922" data-name="グループ 4922" transform="translate(0 0)">
          <path id="パス_27436" data-name="パス 27436" d="M300.639,309.3v5.764s26.489-20.158,15.267-45.468l-3.841-5.124-.31-4.841s-37.782-18.52-56.047-2.842c0,0-3.507,6.71,0,13.113,0,0-.614,3.228,2.562,12.5l3.535,26.9S296.54,297.777,300.639,309.3Z" transform="translate(-254.15 -250.49)" fill="#fff"/>
        </g>
      </g>
      <g id="グループ_4924" data-name="グループ 4924" transform="translate(9.865 168.126)">
        <path id="パス_27437" data-name="パス 27437" d="M247.666,316.511s-21.14,24.015-23.061,29.777-4.483,22.411-5.443,24.331-14.405,50.275-18.25,51.555c0,0-9.285-8.008-13.767-1.6s-1.279,11.849,3.52,16.332,2.562,9.6,6.729,12.487,8.738,6.407,12.214,1.283S215,432.739,215,432.739s8.324-17.93,13.77-26.57,13.448-23.058,12.491-38.426l.638-6.726s38.448-30.418,43.4-41.3S271.77,282.832,247.666,316.511Z" transform="translate(-184.999 -299.846)" fill="#fff"/>
      </g>
      <g id="グループ_4925" data-name="グループ 4925" transform="translate(66.689 166.434)">
        <path id="パス_27438" data-name="パス 27438" d="M266.46,315.139c.071,1.153,16.977,38.27,19.211,43.081s-1.918,11.991,16.01,12.313,58.594,5.3,58.594,5.3a28.838,28.838,0,0,1,12.49,8.468c5.441,6.4,16.33,16.97,18.254,20.5s1.279,5.762,5.118,5.121,2.568-6.409,1.924-10.242c-.641-3.848-3.844-16.974-3.844-16.974s4.17-31.065-7.042-31.7-15.369,5.121-16.97,7.686c0,0-30-9.928-37.577-13.129s-23.895-8.649-28.295-5.762c0,0-1.049-30.424-2.651-33.628S264.537,283.757,266.46,315.139Z" transform="translate(-266.385 -297.424)" fill="#fff"/>
      </g>
      <g id="グループ_4926" data-name="グループ 4926" transform="translate(54.948 104.888)">
        <path id="パス_27439" data-name="パス 27439" d="M249.57,209.273" transform="translate(-249.57 -209.273)" fill="#fff"/>
      </g>
      <g id="グループ_4927" data-name="グループ 4927" transform="translate(0 94.96)">
        <path id="パス_27440" data-name="パス 27440" d="M224.5,204.982l-2.777,6.9s1.179,3.194-5.551,12.8-22.735,32.023-22.735,33.3,5.443,12.489,0,17.284c0,0,1.283,5.446-5.44,7.048s-10.561,4.163-11.528,0c0,0-6.722-2.562-5.443-7.048s7.874-14.087,9.7-15.363a24.856,24.856,0,0,0,3.747-3.525s10.245-33.938,19.216-41.626l8.959-14.406S234.114,185.774,224.5,204.982Z" transform="translate(-170.869 -195.054)" fill="#fff"/>
      </g>
      <g id="グループ_4928" data-name="グループ 4928" transform="translate(148.489 53.234)">
        <path id="パス_27441" data-name="パス 27441" d="M398.724,135.5c1.363.08,53.115,9.766,58.631,12.85,0,0,23-2.135,25.27,5.158s2.068,9.665,2.068,9.665-.313,3.559-3.274,4.424-6.925,2.016-6.925,2.016L466.2,168.9a66.581,66.581,0,0,1-4.627-6.005c-.54-1.165-3.862-3.688-3.862-3.688s-74.408-1.61-74.166-12S382.791,134.517,398.724,135.5Z" transform="translate(-383.545 -135.291)" fill="#fff"/>
      </g>
    </g>
    <g id="グループ_4929-2" data-name="グループ 4929" transform="translate(1260.359 4507)">
      <g id="グループ_4918-2" data-name="グループ 4918" transform="translate(50.86)">
        <path id="パス_27432-2" data-name="パス 27432" d="M293.652,104.023a36.025,36.025,0,0,0,2.5-25.963c-4.066-14.7-9.7-18.453-15.323-17.826,0,0-20.646-5.944-30.968,8.756-7.02,10-8.13,19.075-2.814,24.709,0,0,4.378,6.879,5,8.13s-.7,6.6,1.04,7.339c1.187.5,2.491,1.231,2.491,1.231l4.915,6.444S288.644,134.981,293.652,104.023Z" transform="translate(-243.715 -59.045)" fill="#1b1464"/>
      </g>
      <g id="グループ_4919-2" data-name="グループ 4919" transform="translate(59.716 38.145)">
        <path id="パス_27433-2" data-name="パス 27433" d="M304.147,120.438c.368.886,34.334-2.2,37.862,5.808,5.035,11.438.206,57.87-12.923,66.83,0,0,2.24,4.491-2.878,7.05s-.964-1.92-.964,0,5.441,11.847-9.923,17.931c0,0-47.717,5.124-58.922-2.559,0,0,.964-10.892,6.726-15.053l2.881-20.023s-12.429-25-8-37.292,10.245-12.807,20.493-17.93C278.5,125.2,296.783,102.827,304.147,120.438Z" transform="translate(-256.399 -113.68)" fill="#1b1464"/>
      </g>
      <g id="グループ_4920-2" data-name="グループ 4920" transform="translate(34.471 55.631)">
        <path id="パス_27434-2" data-name="パス 27434" d="M250.291,138.846s14.09,2.233,10.248,18.563a190.988,190.988,0,0,1-10.248,30.572s-15.366,8.177-25.932,3.694,1.92-16.59,7.363-25.746C231.722,165.929,237.807,136.6,250.291,138.846Z" transform="translate(-220.242 -138.724)" fill="#1b1464"/>
      </g>
      <g id="グループ_4921-2" data-name="グループ 4921" transform="translate(117.014 46.085)">
        <path id="パス_27435-2" data-name="パス 27435" d="M357.063,125.052l35.733,6.461s-4.814,35.979-21.453,40.025c0,0-17.931-1.019-27.86-9.794S338.5,126.973,357.063,125.052Z" transform="translate(-338.466 -125.052)" fill="#1b1464"/>
      </g>
      <g id="グループ_4923-2" data-name="グループ 4923" transform="translate(58.146 133.666)">
        <g id="グループ_4922-2" data-name="グループ 4922" transform="translate(0 0)">
          <path id="パス_27436-2" data-name="パス 27436" d="M300.639,309.3v5.764s26.489-20.158,15.267-45.468l-3.841-5.124-.31-4.841s-37.782-18.52-56.047-2.842c0,0-3.507,6.71,0,13.113,0,0-.614,3.228,2.562,12.5l3.535,26.9S296.54,297.777,300.639,309.3Z" transform="translate(-254.15 -250.49)" fill="#1b1464"/>
        </g>
      </g>
      <g id="グループ_4924-2" data-name="グループ 4924" transform="translate(9.865 168.126)">
        <path id="パス_27437-2" data-name="パス 27437" d="M247.666,316.511s-21.14,24.015-23.061,29.777-4.483,22.411-5.443,24.331-14.405,50.275-18.25,51.555c0,0-9.285-8.008-13.767-1.6s-1.279,11.849,3.52,16.332,2.562,9.6,6.729,12.487,8.738,6.407,12.214,1.283S215,432.739,215,432.739s8.324-17.93,13.77-26.57,13.448-23.058,12.491-38.426l.638-6.726s38.448-30.418,43.4-41.3S271.77,282.832,247.666,316.511Z" transform="translate(-184.999 -299.846)" fill="#1b1464"/>
      </g>
      <g id="グループ_4925-2" data-name="グループ 4925" transform="translate(66.689 166.434)">
        <path id="パス_27438-2" data-name="パス 27438" d="M266.46,315.139c.071,1.153,16.977,38.27,19.211,43.081s-1.918,11.991,16.01,12.313,58.594,5.3,58.594,5.3a28.838,28.838,0,0,1,12.49,8.468c5.441,6.4,16.33,16.97,18.254,20.5s1.279,5.762,5.118,5.121,2.568-6.409,1.924-10.242c-.641-3.848-3.844-16.974-3.844-16.974s4.17-31.065-7.042-31.7-15.369,5.121-16.97,7.686c0,0-30-9.928-37.577-13.129s-23.895-8.649-28.295-5.762c0,0-1.049-30.424-2.651-33.628S264.537,283.757,266.46,315.139Z" transform="translate(-266.385 -297.424)" fill="#1b1464"/>
      </g>
      <g id="グループ_4926-2" data-name="グループ 4926" transform="translate(54.948 104.888)">
        <path id="パス_27439-2" data-name="パス 27439" d="M249.57,209.273" transform="translate(-249.57 -209.273)" fill="#1b1464"/>
      </g>
      <g id="グループ_4927-2" data-name="グループ 4927" transform="translate(0 94.96)">
        <path id="パス_27440-2" data-name="パス 27440" d="M224.5,204.982l-2.777,6.9s1.179,3.194-5.551,12.8-22.735,32.023-22.735,33.3,5.443,12.489,0,17.284c0,0,1.283,5.446-5.44,7.048s-10.561,4.163-11.528,0c0,0-6.722-2.562-5.443-7.048s7.874-14.087,9.7-15.363a24.856,24.856,0,0,0,3.747-3.525s10.245-33.938,19.216-41.626l8.959-14.406S234.114,185.774,224.5,204.982Z" transform="translate(-170.869 -195.054)" fill="#1b1464"/>
      </g>
      <g id="グループ_4928-2" data-name="グループ 4928" transform="translate(148.489 53.234)">
        <path id="パス_27441-2" data-name="パス 27441" d="M398.724,135.5c1.363.08,53.115,9.766,58.631,12.85,0,0,23-2.135,25.27,5.158s2.068,9.665,2.068,9.665-.313,3.559-3.274,4.424-6.925,2.016-6.925,2.016L466.2,168.9a66.581,66.581,0,0,1-4.627-6.005c-.54-1.165-3.862-3.688-3.862-3.688s-74.408-1.61-74.166-12S382.791,134.517,398.724,135.5Z" transform="translate(-383.545 -135.291)" fill="#1b1464"/>
      </g>
    </g>
    <circle id="楕円形_479" data-name="楕円形 479" cx="29" cy="29" r="29" transform="translate(1204 4743)" fill="#fff"/>
    <g id="グループ_4930" data-name="グループ 4930" transform="translate(50 -5)">
      <g id="グループ_4903" data-name="グループ 4903" transform="translate(1149 4743.189)">
        <path id="パス_27400" data-name="パス 27400" d="M104.793,475.208c.727-.04,1.445-.108,2.16-.218a99.9,99.9,0,0,0,9.836-3.494c.411-1.39,1.237-7.566,1.237-7.566-1.69.51-12.242-.869-12.242-.869-1.034,1.9-7.059,7.566-7.059,7.566C98.889,471.744,103.952,474.714,104.793,475.208Z" transform="translate(-73.795 -417.298)" fill="#1b1464"/>
        <path id="パス_27401" data-name="パス 27401" d="M72.224,461.235l4.458-.865c-2.574-.853-4.817-11.693-4.817-11.693-2.93-.343-6.177-4.293-6.177-4.293l-.438,5.833A29.053,29.053,0,0,0,72.224,461.235Z" transform="translate(-63.612 -411.662)" fill="#1b1464"/>
        <path id="パス_27402" data-name="パス 27402" d="M64.542,443.914l.438-5.833s-2.076-5.683,0-14.583a29.089,29.089,0,0,0-.438,20.417Z" transform="translate(-62.904 -405.291)" fill="#1b1464"/>
        <path id="パス_27403" data-name="パス 27403" d="M136.261,438.46l.209-.027,4.854-.62a28.961,28.961,0,0,0-2.393-17.538l-3.191-1.761-4.127,7.566A125.918,125.918,0,0,1,136.261,438.46Z" transform="translate(-83.765 -403.775)" fill="#1b1464"/>
        <path id="パス_27404" data-name="パス 27404" d="M84.832,431.029l13.758,3.8s5.861-9.987,6.974-11.186c0,0-5.75-8.9-8.1-10.631a1.242,1.242,0,0,0-.6-.291l-12.025,4.047Z" transform="translate(-69.573 -402.014)" fill="#1b1464"/>
        <path id="パス_27405" data-name="パス 27405" d="M66.665,415.867c1.762-2.821,6.661-5.474,6.661-5.474,0-3.744,4.952-7.333,5.872-7.98A29.028,29.028,0,0,0,66.665,415.867Z" transform="translate(-64.039 -398.865)" fill="#1b1464"/>
        <path id="パス_27406" data-name="パス 27406" d="M107.056,400.425s8.873-.455,12.024,1.267a28.69,28.69,0,0,0-15.286-4.36c-.577,0-1.153.013-1.718.055C102.365,397.44,106.065,398.115,107.056,400.425Z" transform="translate(-74.809 -397.332)" fill="#1b1464"/>
      </g>
      <g id="グループ_4904" data-name="グループ 4904" transform="translate(1149 4743.189)">
        <path id="パス_27407" data-name="パス 27407" d="M65.5,416.332c-.177.4-.355.808-.52,1.221A29,29,0,0,0,91.91,457.31c.674,0,1.347-.028,2.006-.083.725-.04,1.442-.107,2.156-.217a28.988,28.988,0,0,0,11.475-53.1" transform="translate(-62.904 -399.318)" fill="none" stroke="#1b1464" stroke-linecap="round" stroke-linejoin="round" stroke-width="4.5"/>
        <path id="パス_27408" data-name="パス 27408" d="M79.2,402.413a29.028,29.028,0,0,0-12.534,13.454" transform="translate(-64.039 -398.865)" fill="none" stroke="#1b1464" stroke-linecap="round" stroke-linejoin="round" stroke-width="4.5"/>
        <path id="パス_27409" data-name="パス 27409" d="M96.857,397.411a28.6,28.6,0,0,0-12.025,3.4" transform="translate(-69.563 -397.356)" fill="none" stroke="#1b1464" stroke-linecap="round" stroke-linejoin="round" stroke-width="4.5"/>
        <path id="パス_27410" data-name="パス 27410" d="M119.08,401.692a28.69,28.69,0,0,0-15.286-4.36c-.577,0-1.153.013-1.718.055" transform="translate(-74.809 -397.332)" fill="none" stroke="#1b1464" stroke-linecap="round" stroke-linejoin="round" stroke-width="4.5"/>
        <path id="パス_27411" data-name="パス 27411" d="M138.93,420.275l-3.191-1.761-4.127,7.566a125.918,125.918,0,0,1,4.649,12.38l.209-.027,4.854-.62" transform="translate(-83.765 -403.775)" fill="none" stroke="#1b1464" stroke-linecap="round" stroke-linejoin="round" stroke-width="4.5"/>
        <path id="パス_27412" data-name="パス 27412" d="M102.055,397.411h.015c.289.052,3.989.728,4.98,3.038,0,0,8.873-.455,12.024,1.267a2.6,2.6,0,0,1,.383.233" transform="translate(-74.804 -397.356)" fill="none" stroke="#1b1464" stroke-linecap="round" stroke-linejoin="round" stroke-width="4.5"/>
        <path id="パス_27413" data-name="パス 27413" d="M65.25,450.217l.438-5.833s3.247,3.95,6.177,4.293c0,0,2.243,10.84,4.817,11.693l-4.458.865h-.015" transform="translate(-63.612 -411.662)" fill="none" stroke="#1b1464" stroke-linecap="round" stroke-linejoin="round" stroke-width="4.5"/>
        <path id="パス_27414" data-name="パス 27414" d="M105.783,463.061s10.552,1.378,12.242.869c0,0-.825,6.176-1.237,7.566a99.9,99.9,0,0,1-9.836,3.494,5.766,5.766,0,0,1-2.037.288s-.04-.027-.123-.07c-.841-.494-5.9-3.464-6.069-4.581C98.724,470.627,104.749,464.961,105.783,463.061Z" transform="translate(-73.795 -417.298)" fill="none" stroke="#1b1464" stroke-linecap="round" stroke-linejoin="round" stroke-width="4.5"/>
        <path id="パス_27415" data-name="パス 27415" d="M84.832,416.765v14.264l13.758,3.8s5.861-9.987,6.974-11.186c0,0-5.75-8.9-8.1-10.631a1.242,1.242,0,0,0-.6-.291Z" transform="translate(-69.573 -402.014)" fill="none" stroke="#1b1464" stroke-linecap="round" stroke-linejoin="round" stroke-width="4.5"/>
        <line id="線_225" data-name="線 225" x2="6.023" y2="3.261" transform="translate(9.265 11.5)" fill="none" stroke="#1b1464" stroke-linecap="round" stroke-linejoin="round" stroke-width="4.5"/>
        <path id="パス_27416" data-name="パス 27416" d="M74.725,447.035s4.471-7.223,7.057-8.091" transform="translate(-66.472 -409.966)" fill="none" stroke="#1b1464" stroke-linecap="round" stroke-linejoin="round" stroke-width="4.5"/>
        <path id="パス_27417" data-name="パス 27417" d="M81.624,467.28s3.093,3.178,11.939,4.621" transform="translate(-68.589 -418.572)" fill="none" stroke="#1b1464" stroke-linecap="round" stroke-linejoin="round" stroke-width="4.5"/>
        <path id="パス_27418" data-name="パス 27418" d="M104.537,444.384s1.528,5.118,3,13.04" transform="translate(-75.535 -411.627)" fill="none" stroke="#1b1464" stroke-linecap="round" stroke-linejoin="round" stroke-width="4.5"/>
        <path id="パス_27419" data-name="パス 27419" d="M103.039,409.411s1.046-4.9,4.308-7.649" transform="translate(-75.082 -398.669)" fill="none" stroke="#1b1464" stroke-linecap="round" stroke-linejoin="round" stroke-width="4.5"/>
        <path id="パス_27420" data-name="パス 27420" d="M114.526,428.2s7.637-1.2,11.929.691" transform="translate(-78.581 -406.583)" fill="none" stroke="#1b1464" stroke-linecap="round" stroke-linejoin="round" stroke-width="4.5"/>
        <path id="パス_27421" data-name="パス 27421" d="M126.369,459.1s7.278-5.489,8.518-12.052" transform="translate(-82.183 -412.432)" fill="none" stroke="#1b1464" stroke-linecap="round" stroke-linejoin="round" stroke-width="4.5"/>
        <path id="パス_27422" data-name="パス 27422" d="M65.479,431.675s-2.076-5.683,0-14.583A4.272,4.272,0,0,1,66,415.868c0-.015.016-.028.028-.043,1.762-2.821,6.661-5.474,6.661-5.474,0-3.744,4.952-7.333,5.872-7.98a.593.593,0,0,1,.15-.1" transform="translate(-63.403 -398.824)" fill="none" stroke="#1b1464" stroke-linecap="round" stroke-linejoin="round" stroke-width="4.5"/>
      </g>
    </g>
  </g>
</svg>
