<svg xmlns="http://www.w3.org/2000/svg" width="99.624" height="168.976" viewBox="0 0 99.624 168.976">
  <g id="グループ_6351" data-name="グループ 6351" transform="translate(-910 -2501)">
    <g id="グループ_4972" data-name="グループ 4972" transform="translate(-158.434 2026.348)">
      <path id="パス_27481" data-name="パス 27481" d="M1153.372,474.652h-70.251a14.7,14.7,0,0,0-14.687,14.687v139.6a14.7,14.7,0,0,0,14.687,14.686h70.251a14.7,14.7,0,0,0,14.686-14.686v-139.6A14.7,14.7,0,0,0,1153.372,474.652Zm-35.126,6.048a3.22,3.22,0,1,1-3.221,3.22A3.221,3.221,0,0,1,1118.246,480.7Zm11.227,154.178h-22.454a3.389,3.389,0,0,1,0-6.779h22.454a3.389,3.389,0,0,1,0,6.779Zm31.807-15.952h-86.068V493.733h86.068Z" fill="#505050"/>
      <path id="パス_27482" data-name="パス 27482" d="M1096.431,509.421a15.348,15.348,0,0,0,1.625,1.771v3.9a4.553,4.553,0,0,0,4.54,4.54h29.293a4.553,4.553,0,0,0,4.54-4.54v-5.275a4.553,4.553,0,0,0-4.54-4.54H1102.6a4.555,4.555,0,0,0-4.216,2.87,15.025,15.025,0,0,1-3.964-2.145A15.211,15.211,0,0,0,1096.431,509.421Z" fill="#505050"/>
      <circle id="楕円形_485" data-name="楕円形 485" cx="6.281" cy="6.281" r="6.281" transform="matrix(0.232, -0.973, 0.973, 0.232, 1079.67, 513.607)" fill="#505050"/>
      <path id="パス_27483" data-name="パス 27483" d="M1098.056,534.331v16.584a4.553,4.553,0,0,0,4.54,4.54h29.293a4.553,4.553,0,0,0,4.54-4.54V532.953a4.553,4.553,0,0,0-4.54-4.54H1102.6a4.555,4.555,0,0,0-4.216,2.87,15.025,15.025,0,0,1-3.964-2.145,15.164,15.164,0,0,0,3.64,5.193Z" fill="#505050"/>
      <circle id="楕円形_486" data-name="楕円形 486" cx="6.281" cy="6.281" r="6.281" transform="translate(1080.233 537.558) rotate(-82.937)" fill="#505050"/>
      <path id="パス_27484" data-name="パス 27484" d="M1156.513,564.5a1.589,1.589,0,0,0-1.935-.016,16.434,16.434,0,0,1-4.25,2.319,6.152,6.152,0,0,0-5.026-2.64H1116.01a6.136,6.136,0,0,0-6.129,6.129v28.453a6.136,6.136,0,0,0,6.129,6.129H1145.3a6.136,6.136,0,0,0,6.129-6.129V573.878a19.925,19.925,0,0,0,5.567-7.506A1.589,1.589,0,0,0,1156.513,564.5Zm-7.641,7.359a1.588,1.588,0,0,0-.619,1.258v25.628a2.955,2.955,0,0,1-2.951,2.951H1116.01a2.954,2.954,0,0,1-2.951-2.951V570.291a2.954,2.954,0,0,1,2.951-2.951H1145.3a2.97,2.97,0,0,1,2.764,1.936,1.588,1.588,0,0,0,1.921.974q.492-.138.974-.3A16.89,16.89,0,0,1,1148.872,571.858Z" fill="#505050"/>
    </g>
  </g>
</svg>
