<svg xmlns="http://www.w3.org/2000/svg" width="157.002" height="55.004" viewBox="0 0 157.002 55.004">
  <g id="グループ_6350" data-name="グループ 6350" transform="translate(-881.998 -2217.998)">
    <g id="合体_63" data-name="合体 63" transform="translate(1980 -17186)" fill="#fff">
      <path d="M -1019.498291015625 19456.486328125 L -1026.462280273438 19447.103515625 L -1026.912109375 19446.498046875 L -1027.666748046875 19446.498046875 L -1088 19446.498046875 C -1092.687744140625 19446.498046875 -1096.501586914062 19442.6875 -1096.501586914062 19438.001953125 L -1096.501586914062 19414 C -1096.501586914062 19409.3125 -1092.687744140625 19405.498046875 -1088 19405.498046875 L -951.0013427734375 19405.498046875 C -946.3135986328125 19405.498046875 -942.4998168945312 19409.3125 -942.4998168945312 19414 L -942.4998168945312 19438.001953125 C -942.4998168945312 19442.6875 -946.3135986328125 19446.498046875 -951.0013427734375 19446.498046875 L -1011.329833984375 19446.498046875 L -1012.08447265625 19446.498046875 L -1012.534240722656 19447.103515625 L -1019.498291015625 19456.486328125 Z" stroke="none"/>
      <path d="M -1019.498291015625 19453.96875 L -1013.738647460938 19446.208984375 L -1012.839050292969 19444.998046875 L -1011.329833984375 19444.998046875 L -951.0013427734375 19444.998046875 C -947.1406860351562 19444.998046875 -943.9998168945312 19441.859375 -943.9998168945312 19438.001953125 L -943.9998168945312 19414 C -943.9998168945312 19410.138671875 -947.1406860351562 19406.998046875 -951.0013427734375 19406.998046875 L -1088 19406.998046875 C -1091.860717773438 19406.998046875 -1095.001586914062 19410.138671875 -1095.001586914062 19414 L -1095.001586914062 19438.001953125 C -1095.001586914062 19441.859375 -1091.860717773438 19444.998046875 -1088 19444.998046875 L -1027.666748046875 19444.998046875 L -1026.157470703125 19444.998046875 L -1025.257934570312 19446.208984375 L -1019.498291015625 19453.96875 M -1019.498291015625 19459.001953125 L -1027.666748046875 19447.998046875 L -1088 19447.998046875 C -1093.523315429688 19447.998046875 -1098.001586914062 19443.525390625 -1098.001586914062 19438.001953125 L -1098.001586914062 19414 C -1098.001586914062 19408.4765625 -1093.523315429688 19403.998046875 -1088 19403.998046875 L -951.0013427734375 19403.998046875 C -945.47802734375 19403.998046875 -940.9998168945312 19408.4765625 -940.9998168945312 19414 L -940.9998168945312 19438.001953125 C -940.9998168945312 19443.525390625 -945.47802734375 19447.998046875 -951.0013427734375 19447.998046875 L -1011.329833984375 19447.998046875 L -1019.498291015625 19459.001953125 Z" stroke="none" fill="#1b1464"/>
    </g>
    <text id="ステップ3" transform="translate(960 2248)" fill="#1b1464" font-size="20" font-family="NotoSansCJKjp-Bold, Noto Sans CJK JP" font-weight="700" letter-spacing="0.02em"><tspan x="-46.69" y="0">ステップ3</tspan></text>
  </g>
</svg>
