<svg xmlns="http://www.w3.org/2000/svg" width="172.109" height="212.786" viewBox="0 0 172.109 212.786">
  <g id="グループ_4971" data-name="グループ 4971" transform="translate(-874 -1947.999)">
    <g id="グループ_4967" data-name="グループ 4967" transform="translate(9.619 1502.904)">
      <path id="パス_27472" data-name="パス 27472" d="M1026.4,601.043l-34.356-46.509v-55.1a12.931,12.931,0,0,0-12.916-12.916H917.346a12.931,12.931,0,0,0-12.916,12.916V628.6a12.931,12.931,0,0,0,12.916,12.916h54.089l8.342,15.192,6.178-3.392L960.9,607.687c-2.481-5.754-1.141-12.394,3.019-14.854,4.027-2.381,11.083-1.559,14.792,3.42l25.7,36.613,5.769-4.049-18.13-25.831V566.4l28.707,38.862a43.45,43.45,0,0,1,8.691,25.982v26.642h7.047V631.239A50.515,50.515,0,0,0,1026.4,601.043Zm-79.96-108.564h3.592a2.832,2.832,0,1,1-3.592,0Zm11.67,141.343H938.363a2.98,2.98,0,0,1,0-5.961h19.748a2.98,2.98,0,0,1,0,5.961Zm2.218-47.055c-7.286,4.309-9.842,14.808-5.819,23.9l.061.138,4.934,8.986h-47.3V503.3h72.058v88.625C978.215,583.94,967.045,582.795,960.329,586.767Z" fill="#505050"/>
    </g>
    <g id="グループ_4970" data-name="グループ 4970">
      <path id="パス_27473" data-name="パス 27473" d="M896.891,481.43l-32.51-22.566,9.179-8.414Z" transform="translate(9.619 1502.904)" fill="#505050"/>
      <path id="パス_27474" data-name="パス 27474" d="M894.978,492.479l-30.6-5.961V497.5Z" transform="translate(9.619 1502.904)" fill="#505050"/>
      <path id="パス_27475" data-name="パス 27475" d="M907.982,477.6l-7.649-29.833,11.875-2.677Z" transform="translate(9.619 1502.904)" fill="#505050"/>
    </g>
    <g id="グループ_4969" data-name="グループ 4969" transform="translate(9.619 1502.904)">
      <path id="パス_27476" data-name="パス 27476" d="M972.131,557.015c0-10.626-10.653-19.271-23.747-19.271s-23.746,8.645-23.746,19.271c0,9.525,8.448,17.5,19.86,19.012.773.166,1.825.509,2.092,1.171a4.883,4.883,0,0,1,.076,2.147s-.278,1.675-.338,2.033c-.1.6-.478,2.348,2.056,1.28s13.676-8.053,18.658-13.787h0c3.441-3.774,5.09-7.6,5.09-11.856" fill="#505050"/>
      <g id="グループ_4968" data-name="グループ 4968">
        <path id="パス_27477" data-name="パス 27477" d="M943.56,551.88h-1.666a.463.463,0,0,0-.463.462v10.346a.463.463,0,0,0,.463.462h1.666a.462.462,0,0,0,.462-.462V552.342a.462.462,0,0,0-.462-.462" fill="#fff"/>
        <path id="パス_27478" data-name="パス 27478" d="M955.024,551.88h-1.665a.462.462,0,0,0-.463.462v6.147l-4.741-6.4c-.011-.016-.024-.032-.036-.047l0,0-.028-.028-.009-.008-.025-.021-.012-.009-.024-.016-.013-.009-.025-.014-.015-.007-.026-.011-.015-.005-.028-.009-.016,0-.026-.006-.02,0-.024,0H946.1a.462.462,0,0,0-.462.462v10.346a.462.462,0,0,0,.462.462h1.666a.462.462,0,0,0,.462-.462v-6.145l4.748,6.412a.469.469,0,0,0,.117.114l.005,0,.029.017.013.007.022.011.022.009.014.006.032.01h.006a.468.468,0,0,0,.119.016h1.665a.462.462,0,0,0,.463-.462V552.342a.462.462,0,0,0-.463-.462" fill="#fff"/>
        <path id="パス_27479" data-name="パス 27479" d="M939.545,560.559h-4.526v-8.217a.462.462,0,0,0-.462-.462h-1.666a.462.462,0,0,0-.463.462v10.346h0a.464.464,0,0,0,.129.32l.007.007.007.006a.457.457,0,0,0,.319.129h6.655a.461.461,0,0,0,.461-.462v-1.666a.462.462,0,0,0-.461-.463" fill="#fff"/>
        <path id="パス_27480" data-name="パス 27480" d="M964.223,554.471a.462.462,0,0,0,.461-.463v-1.665a.462.462,0,0,0-.461-.463h-6.655a.463.463,0,0,0-.321.13l-.005.005-.008.008a.461.461,0,0,0-.128.319h0v10.345h0a.464.464,0,0,0,.129.32l.007.007.007.006a.455.455,0,0,0,.319.129h6.655a.461.461,0,0,0,.461-.462v-1.666a.462.462,0,0,0-.461-.463H959.7V558.81h4.526a.461.461,0,0,0,.461-.462v-1.666a.462.462,0,0,0-.461-.463H959.7v-1.748Z" fill="#fff"/>
      </g>
    </g>
  </g>
</svg>
